<svg width="72" height="72" viewBox="0 0 72 72" fill="none" xmlns="http://www.w3.org/2000/svg">
<circle cx="36" cy="36" r="36" fill="#2B3455"/>
<circle cx="36.5" cy="35.5" r="26" fill="#2B3455" stroke="white" stroke-width="3"/>
<path d="M35.6818 48.3182C34.3485 48.3182 33.1477 48.053 32.0795 47.5227C31.0114 46.9924 30.1553 46.2652 29.5114 45.3409C28.8674 44.4167 28.5152 43.3636 28.4545 42.1818H31.1818C31.2879 43.2348 31.7652 44.1061 32.6136 44.7955C33.4697 45.4773 34.4924 45.8182 35.6818 45.8182C36.6364 45.8182 37.4848 45.5947 38.2273 45.1477C38.9773 44.7008 39.5644 44.0871 39.9886 43.3068C40.4205 42.5189 40.6364 41.6288 40.6364 40.6364C40.6364 39.6212 40.4129 38.7159 39.9659 37.9205C39.5265 37.1174 38.9205 36.4848 38.1477 36.0227C37.375 35.5606 36.4924 35.3258 35.5 35.3182C34.7879 35.3106 34.0568 35.4205 33.3068 35.6477C32.5568 35.8674 31.9394 36.1515 31.4545 36.5L28.8182 36.1818L30.2273 24.7273H42.3182V27.2273H32.5909L31.7727 34.0909H31.9091C32.3864 33.7121 32.9848 33.3977 33.7045 33.1477C34.4242 32.8977 35.1742 32.7727 35.9545 32.7727C37.3788 32.7727 38.6477 33.1136 39.7614 33.7955C40.8826 34.4697 41.7614 35.3939 42.3977 36.5682C43.0417 37.7424 43.3636 39.0833 43.3636 40.5909C43.3636 42.0758 43.0303 43.4015 42.3636 44.5682C41.7045 45.7273 40.7955 46.6439 39.6364 47.3182C38.4773 47.9848 37.1591 48.3182 35.6818 48.3182Z" fill="white"/>
</svg>
