<svg width="72" height="72" viewBox="0 0 72 72" fill="none" xmlns="http://www.w3.org/2000/svg">
<circle cx="36" cy="36" r="36" fill="#2B3455"/>
<circle cx="36.5" cy="35.5" r="26" fill="#2B3455" stroke="white" stroke-width="3"/>
<path d="M36.1364 47.3182C35.1818 47.303 34.2273 47.1212 33.2727 46.7727C32.3182 46.4242 31.447 45.8371 30.6591 45.0114C29.8712 44.178 29.2386 43.053 28.7614 41.6364C28.2841 40.2121 28.0455 38.4242 28.0455 36.2727C28.0455 34.2121 28.2386 32.3864 28.625 30.7955C29.0114 29.197 29.572 27.8523 30.3068 26.7614C31.0417 25.6629 31.928 24.8295 32.9659 24.2614C34.0114 23.6932 35.1894 23.4091 36.5 23.4091C37.803 23.4091 38.9621 23.6705 39.9773 24.1932C41 24.7083 41.8333 25.428 42.4773 26.3523C43.1212 27.2765 43.5379 28.3409 43.7273 29.5455H40.9545C40.697 28.5 40.197 27.6326 39.4545 26.9432C38.7121 26.2538 37.7273 25.9091 36.5 25.9091C34.697 25.9091 33.2765 26.6932 32.2386 28.2614C31.2083 29.8295 30.6894 32.0303 30.6818 34.8636H30.8636C31.2879 34.2197 31.7917 33.6705 32.375 33.2159C32.9659 32.7538 33.6174 32.3977 34.3295 32.1477C35.0417 31.8977 35.7955 31.7727 36.5909 31.7727C37.9242 31.7727 39.1439 32.1061 40.25 32.7727C41.3561 33.4318 42.2424 34.3447 42.9091 35.5114C43.5758 36.6705 43.9091 38 43.9091 39.5C43.9091 40.9394 43.5871 42.2576 42.9432 43.4545C42.2992 44.6439 41.3939 45.5909 40.2273 46.2955C39.0682 46.9924 37.7045 47.3333 36.1364 47.3182ZM36.1364 44.8182C37.0909 44.8182 37.947 44.5795 38.7045 44.1023C39.4697 43.625 40.072 42.9848 40.5114 42.1818C40.9583 41.3788 41.1818 40.4848 41.1818 39.5C41.1818 38.5379 40.9659 37.6629 40.5341 36.875C40.1098 36.0795 39.5227 35.447 38.7727 34.9773C38.0303 34.5076 37.1818 34.2727 36.2273 34.2727C35.5076 34.2727 34.8371 34.4167 34.2159 34.7045C33.5947 34.9848 33.0492 35.3712 32.5795 35.8636C32.1174 36.3561 31.7538 36.9205 31.4886 37.5568C31.2235 38.1856 31.0909 38.8485 31.0909 39.5455C31.0909 40.4697 31.3068 41.3333 31.7386 42.1364C32.178 42.9394 32.7765 43.5871 33.5341 44.0795C34.2992 44.572 35.1667 44.8182 36.1364 44.8182Z" fill="white"/>
</svg>
