<svg width="72" height="72" viewBox="0 0 72 72" fill="none" xmlns="http://www.w3.org/2000/svg">
<circle cx="36" cy="36" r="36" fill="#2B3455"/>
<circle cx="36.5" cy="35.5" r="26" fill="#2B3455" stroke="white" stroke-width="3"/>
<path d="M28.4091 46V43.9545L36.0909 35.5455C36.9924 34.5606 37.7348 33.7045 38.3182 32.9773C38.9015 32.2424 39.3333 31.553 39.6136 30.9091C39.9015 30.2576 40.0455 29.5758 40.0455 28.8636C40.0455 28.0455 39.8485 27.3371 39.4545 26.7386C39.0682 26.1402 38.5379 25.678 37.8636 25.3523C37.1894 25.0265 36.4318 24.8636 35.5909 24.8636C34.697 24.8636 33.9167 25.0492 33.25 25.4205C32.5909 25.7841 32.0795 26.2955 31.7159 26.9545C31.3598 27.6136 31.1818 28.3864 31.1818 29.2727H28.5C28.5 27.9091 28.8144 26.7121 29.4432 25.6818C30.072 24.6515 30.928 23.8485 32.0114 23.2727C33.1023 22.697 34.3258 22.4091 35.6818 22.4091C37.0455 22.4091 38.2538 22.697 39.3068 23.2727C40.3598 23.8485 41.1856 24.625 41.7841 25.6023C42.3826 26.5795 42.6818 27.6667 42.6818 28.8636C42.6818 29.7197 42.5265 30.5568 42.2159 31.375C41.9129 32.1856 41.3826 33.0909 40.625 34.0909C39.875 35.0833 38.8333 36.2955 37.5 37.7273L32.2727 43.3182V43.5H43.0909V46H28.4091Z" fill="white"/>
</svg>
