<svg width="72" height="72" viewBox="0 0 72 72" fill="none" xmlns="http://www.w3.org/2000/svg">
<circle cx="36" cy="36" r="36" fill="#2B3455"/>
<circle cx="36.5" cy="35.5" r="26" fill="#2B3455" stroke="white" stroke-width="3"/>
<path d="M36.2727 46.3182C34.7727 46.3182 33.4356 46.0606 32.2614 45.5455C31.0947 45.0303 30.1667 44.3144 29.4773 43.3977C28.7955 42.4735 28.4242 41.4015 28.3636 40.1818H31.2273C31.2879 40.9318 31.5455 41.5795 32 42.125C32.4545 42.6629 33.0492 43.0795 33.7841 43.375C34.5189 43.6705 35.3333 43.8182 36.2273 43.8182C37.2273 43.8182 38.1136 43.6439 38.8864 43.2955C39.6591 42.947 40.2652 42.4621 40.7045 41.8409C41.1439 41.2197 41.3636 40.5 41.3636 39.6818C41.3636 38.8258 41.1515 38.072 40.7273 37.4205C40.303 36.7614 39.6818 36.2462 38.8636 35.875C38.0455 35.5038 37.0455 35.3182 35.8636 35.3182H34V32.8182H35.8636C36.7879 32.8182 37.5985 32.6515 38.2955 32.3182C39 31.9848 39.5492 31.5152 39.9432 30.9091C40.3447 30.303 40.5455 29.5909 40.5455 28.7727C40.5455 27.9848 40.3712 27.2992 40.0227 26.7159C39.6742 26.1326 39.1818 25.678 38.5455 25.3523C37.9167 25.0265 37.1742 24.8636 36.3182 24.8636C35.5152 24.8636 34.7576 25.0114 34.0455 25.3068C33.3409 25.5947 32.7652 26.0152 32.3182 26.5682C31.8712 27.1136 31.6288 27.7727 31.5909 28.5455H28.8636C28.9091 27.3258 29.2765 26.2576 29.9659 25.3409C30.6553 24.4167 31.5568 23.697 32.6705 23.1818C33.7917 22.6667 35.0227 22.4091 36.3636 22.4091C37.803 22.4091 39.0379 22.7008 40.0682 23.2841C41.0985 23.8598 41.8902 24.6212 42.4432 25.5682C42.9962 26.5152 43.2727 27.5379 43.2727 28.6364C43.2727 29.947 42.928 31.0644 42.2386 31.9886C41.5568 32.9129 40.6288 33.553 39.4545 33.9091V34.0909C40.9242 34.3333 42.072 34.9583 42.8977 35.9659C43.7235 36.9659 44.1364 38.2045 44.1364 39.6818C44.1364 40.947 43.7917 42.0833 43.1023 43.0909C42.4205 44.0909 41.4886 44.8788 40.3068 45.4545C39.125 46.0303 37.7803 46.3182 36.2727 46.3182Z" fill="white"/>
</svg>
